<?xml version="1.0" ?><svg height="512" id="svg2" version="1.1" width="512" xmlns="http://www.w3.org/2000/svg" xmlns:cc="http://creativecommons.org/ns#" xmlns:dc="http://purl.org/dc/elements/1.1/" xmlns:inkscape="http://www.inkscape.org/namespaces/inkscape" xmlns:rdf="http://www.w3.org/1999/02/22-rdf-syntax-ns#" xmlns:sodipodi="http://sodipodi.sourceforge.net/DTD/sodipodi-0.dtd" xmlns:svg="http://www.w3.org/2000/svg"><defs id="defs4"/><g id="layer1" transform="translate(0,-540.36218)"><g id="g4305"><g id="g4345" transform="translate(28,-40.00001)"><g id="text2994" style="font-size:550px;font-style:normal;font-variant:normal;font-weight:normal;font-stretch:normal;text-align:start;line-height:125%;letter-spacing:0px;word-spacing:0px;writing-mode:lr-tb;text-anchor:start;fill:#222222;fill-opacity:1;stroke:none;font-family:Ubuntu;-inkscape-font-specification:Ubuntu"><g id="g3830" transform="translate(0,15.24359)"><g id="g3838"><g id="g3785"><path d="m 228,591.1186 c -55.22847,0 -100,17.90861 -100,40 l 0,380 c 0,22.0914 44.77153,40 100,40 55.22847,0 100,-17.9086 100,-40 l 0,-380 c 0,-22.09139 -44.77153,-40 -100,-40 z m -70,79 140,0 0,180 -140,0 0,-180 z m 0,211 35,0 0,20 -35,0 0,-20 z m 52.5,0 35,0 0,20 -35,0 0,-20 z m 52.5,0 35,0 0,20 -35,0 0,-20 z m -105,35 35,0 0,20 -35,0 0,-20 z m 52.5,0 35,0 0,20 -35,0 0,-20 z m 52.5,0 35,0 0,20 -35,0 0,-20 z m -105,35 35,0 0,20 -35,0 0,-20 z m 52.5,0 35,0 0,20 -35,0 0,-20 z m 52.5,0 35,0 0,20 -35,0 0,-20 z" id="path3824" style="color:#000000;fill:#222222;fill-opacity:1;fill-rule:nonzero;stroke:none;stroke-width:10;marker:none;visibility:visible;display:inline;overflow:visible;enable-background:accumulate"/></g></g></g><g id="layer1-4" transform="translate(539.77941,-13.359245)"><g id="layer1-5" transform="translate(-573.14286,170.28574)"/></g></g></g></g></g></svg>