<?xml version="1.0" encoding="UTF-8" standalone="no"?>
<svg
   xmlns:dc="http://purl.org/dc/elements/1.1/"
   xmlns:cc="http://creativecommons.org/ns#"
   xmlns:rdf="http://www.w3.org/1999/02/22-rdf-syntax-ns#"
   xmlns:svg="http://www.w3.org/2000/svg"
   xmlns="http://www.w3.org/2000/svg"
   xmlns:sodipodi="http://sodipodi.sourceforge.net/DTD/sodipodi-0.dtd"
   xmlns:inkscape="http://www.inkscape.org/namespaces/inkscape"
   height="1792"
   viewBox="0 0 1792 1792"
   width="1792"
   version="1.1"
   id="svg4"
   sodipodi:docname="if_asterisk_1608530 (1).svg"
   inkscape:version="0.92.3 (2405546, 2018-03-11)">
  <metadata
     id="metadata10">
    <rdf:RDF>
      <cc:Work
         rdf:about="">
        <dc:format>image/svg+xml</dc:format>
        <dc:type
           rdf:resource="http://purl.org/dc/dcmitype/StillImage" />
      </cc:Work>
    </rdf:RDF>
  </metadata>
  <defs
     id="defs8" />
  <sodipodi:namedview
     pagecolor="#ffffff"
     bordercolor="#666666"
     borderopacity="1"
     objecttolerance="10"
     gridtolerance="10"
     guidetolerance="10"
     inkscape:pageopacity="0"
     inkscape:pageshadow="2"
     inkscape:window-width="1366"
     inkscape:window-height="705"
     id="namedview6"
     showgrid="false"
     inkscape:zoom="0.27059501"
     inkscape:cx="896"
     inkscape:cy="896"
     inkscape:window-x="-8"
     inkscape:window-y="-8"
     inkscape:window-maximized="1"
     inkscape:current-layer="svg4" />
  <path
     d="M1546 1050q46 26 59.5 77.5t-12.5 97.5l-64 110q-26 46-77.5 59.5t-97.5-12.5l-266-153v307q0 52-38 90t-90 38h-128q-52 0-90-38t-38-90v-307l-266 153q-46 26-97.5 12.5t-77.5-59.5l-64-110q-26-46-12.5-97.5t59.5-77.5l266-154-266-154q-46-26-59.5-77.5t12.5-97.5l64-110q26-46 77.5-59.5t97.5 12.5l266 153v-307q0-52 38-90t90-38h128q52 0 90 38t38 90v307l266-153q46-26 97.5-12.5t77.5 59.5l64 110q26 46 12.5 97.5t-59.5 77.5l-266 154z"
     id="path2"
     style="fill:#d40000" />
</svg>
